<svg width="628" height="121" viewBox="0 0 628 121" fill="none" xmlns="http://www.w3.org/2000/svg">
<circle cx="60.5" cy="60.5" r="60.5" fill="#1D90F5"/>
<path d="M185.79 106.05C180.4 106.05 175.43 105.14 170.88 103.32C166.4 101.43 162.48 98.805 159.12 95.445C155.83 92.015 153.275 87.99 151.455 83.37C149.635 78.68 148.725 73.57 148.725 68.04C148.725 62.65 149.67 57.68 151.56 53.13C153.45 48.51 156.11 44.52 159.54 41.16C162.97 37.73 166.995 35.07 171.615 33.18C176.235 31.29 181.24 30.345 186.63 30.345C190.13 30.345 193.56 30.835 196.92 31.815C200.35 32.725 203.465 34.09 206.265 35.91C209.135 37.73 211.585 39.9 213.615 42.42L203.745 53.34C202.065 51.66 200.315 50.225 198.495 49.035C196.745 47.775 194.855 46.83 192.825 46.2C190.865 45.5 188.765 45.15 186.525 45.15C183.515 45.15 180.68 45.71 178.02 46.83C175.43 47.95 173.155 49.525 171.195 51.555C169.235 53.515 167.66 55.93 166.47 58.8C165.35 61.6 164.79 64.715 164.79 68.145C164.79 71.645 165.35 74.83 166.47 77.7C167.59 80.5 169.165 82.915 171.195 84.945C173.225 86.905 175.64 88.445 178.44 89.565C181.31 90.615 184.46 91.14 187.89 91.14C190.13 91.14 192.3 90.825 194.4 90.195C196.5 89.565 198.425 88.69 200.175 87.57C201.995 86.45 203.605 85.155 205.005 83.685L212.67 95.97C210.99 97.86 208.715 99.575 205.845 101.115C203.045 102.655 199.895 103.88 196.395 104.79C192.895 105.63 189.36 106.05 185.79 106.05ZM249.678 106.05C244.008 106.05 238.933 104.825 234.453 102.375C230.043 99.855 226.543 96.425 223.953 92.085C221.433 87.745 220.173 82.775 220.173 77.175C220.173 71.575 221.433 66.64 223.953 62.37C226.543 58.03 230.043 54.6 234.453 52.08C238.933 49.56 244.008 48.3 249.678 48.3C255.278 48.3 260.283 49.56 264.693 52.08C269.173 54.6 272.673 58.03 275.193 62.37C277.713 66.64 278.973 71.575 278.973 77.175C278.973 82.775 277.713 87.745 275.193 92.085C272.673 96.425 269.173 99.855 264.693 102.375C260.283 104.825 255.278 106.05 249.678 106.05ZM249.678 93.03C252.408 93.03 254.858 92.365 257.028 91.035C259.198 89.635 260.878 87.745 262.068 85.365C263.328 82.915 263.958 80.185 263.958 77.175C263.958 74.095 263.328 71.365 262.068 68.985C260.878 66.535 259.198 64.645 257.028 63.315C254.858 61.915 252.408 61.215 249.678 61.215C246.878 61.215 244.393 61.915 242.223 63.315C240.053 64.715 238.338 66.605 237.078 68.985C235.818 71.365 235.223 74.095 235.293 77.175C235.223 80.185 235.818 82.915 237.078 85.365C238.338 87.745 240.053 89.635 242.223 91.035C244.393 92.365 246.878 93.03 249.678 93.03ZM338.453 105L316.088 31.5H332.258L344.228 72.555C344.718 74.025 345.138 75.635 345.488 77.385C345.908 79.065 346.223 80.71 346.433 82.32C346.713 83.86 346.923 85.33 347.063 86.73C347.273 88.06 347.448 89.18 347.588 90.09L345.068 89.985C345.698 87.045 346.223 84.595 346.643 82.635C347.063 80.605 347.448 78.82 347.798 77.28C348.218 75.67 348.708 74.06 349.268 72.45L360.818 42.105H373.838L385.178 72.45C386.018 74.55 386.683 76.58 387.173 78.54C387.733 80.43 388.188 82.285 388.538 84.105C388.888 85.855 389.238 87.64 389.588 89.46L387.278 89.88C387.488 88.41 387.628 87.15 387.698 86.1C387.838 84.98 387.943 83.965 388.013 83.055C388.153 82.145 388.293 81.235 388.433 80.325C388.573 79.345 388.783 78.225 389.063 76.965C389.343 75.635 389.763 74.095 390.323 72.345L402.188 31.5H418.148L395.573 105H383.918L365.753 61.53L367.433 61.74L350.528 105H338.453ZM426.465 105V49.455H440.85L441.375 67.305L438.855 63.63C439.695 60.76 441.06 58.17 442.95 55.86C444.84 53.48 447.045 51.625 449.565 50.295C452.155 48.965 454.85 48.3 457.65 48.3C458.84 48.3 459.995 48.405 461.115 48.615C462.235 48.825 463.18 49.07 463.95 49.35L459.96 65.73C459.12 65.31 458.105 64.96 456.915 64.68C455.725 64.33 454.5 64.155 453.24 64.155C451.56 64.155 449.985 64.47 448.515 65.1C447.115 65.66 445.89 66.5 444.84 67.62C443.79 68.67 442.95 69.93 442.32 71.4C441.76 72.87 441.48 74.48 441.48 76.23V105H426.465ZM473.765 105V49.455H488.675V105H473.765ZM481.115 38.01C478.245 38.01 476.005 37.31 474.395 35.91C472.785 34.51 471.98 32.515 471.98 29.925C471.98 27.545 472.785 25.62 474.395 24.15C476.075 22.61 478.315 21.84 481.115 21.84C483.985 21.84 486.225 22.575 487.835 24.045C489.445 25.445 490.25 27.405 490.25 29.925C490.25 32.375 489.41 34.335 487.73 35.805C486.12 37.275 483.915 38.01 481.115 38.01ZM509.955 105V35.385H524.865V105H509.955ZM499.56 62.79V49.455H536.205V62.79H499.56ZM571.765 106.05C565.745 106.05 560.495 104.825 556.015 102.375C551.535 99.925 548.035 96.565 545.515 92.295C542.995 88.025 541.735 83.125 541.735 77.595C541.735 73.325 542.435 69.405 543.835 65.835C545.235 62.265 547.195 59.185 549.715 56.595C552.235 53.935 555.21 51.905 558.64 50.505C562.14 49.035 565.92 48.3 569.98 48.3C573.76 48.3 577.26 49 580.48 50.4C583.7 51.73 586.465 53.655 588.775 56.175C591.155 58.625 592.975 61.53 594.235 64.89C595.495 68.25 596.055 71.925 595.915 75.915L595.81 80.535H551.185L548.77 71.4H583.525L581.845 73.29V70.98C581.705 69.09 581.075 67.375 579.955 65.835C578.905 64.295 577.54 63.105 575.86 62.265C574.18 61.425 572.29 61.005 570.19 61.005C567.11 61.005 564.485 61.6 562.315 62.79C560.215 63.98 558.605 65.73 557.485 68.04C556.365 70.35 555.805 73.15 555.805 76.44C555.805 79.8 556.505 82.705 557.905 85.155C559.375 87.605 561.405 89.53 563.995 90.93C566.655 92.26 569.77 92.925 573.34 92.925C575.79 92.925 578.03 92.54 580.06 91.77C582.09 91 584.26 89.67 586.57 87.78L593.71 97.755C591.68 99.575 589.44 101.115 586.99 102.375C584.54 103.565 582.02 104.475 579.43 105.105C576.84 105.735 574.285 106.05 571.765 106.05Z" fill="white"/>
<path d="M612.499 106.155C609.769 106.155 607.669 105.385 606.199 103.845C604.729 102.305 603.994 100.1 603.994 97.23C603.994 94.64 604.764 92.54 606.304 90.93C607.914 89.25 609.979 88.41 612.499 88.41C615.159 88.41 617.224 89.18 618.694 90.72C620.164 92.26 620.899 94.43 620.899 97.23C620.899 99.89 620.129 102.06 618.589 103.74C617.049 105.35 615.019 106.155 612.499 106.155Z" fill="#1D90F5"/>
</svg>
